# xmcd
#
# Track frame offsets:
#	150
#	15057
#	28538
#	47216
#	60656
#	80427
#	93801
#	105543
#	120930
#	134284
#	147311
#	160406
#	173433
#	188853
#	202939
#	217929
#	231187
#	246562
#	263956
#	280863
#	295628
#
# Disc length: 4146 seconds
#
# Revision: 0
# Processed by: cddbd v1.5.1PL2 Copyright (c) Steve Scherf et al.
# Submitted via: audiograbber 1.83.01
#
DISCID=18103015
DTITLE=Tom Jones - I who have nothing and She's a lady
DYEAR=1970
DGENRE=
TTITLE0=Daughter of darkness
TTITLE1=I have dreamed
TTITLE2=Love's been good to me
TTITLE3=Lodi
TTITLE4=Try a little tenderness
TTITLE5=I (who have nothing)
TTITLE6=What the world needs now is love
TTITLE7=To love somebody
TTITLE8=Brother, can spare a dime
TTITLE9=See Saw
TTITLE10=She's a lady
TTITLE11=Do what you gotta do
TTITLE12=In dreams
TTITLE13=Nothing Rhymed
TTITLE14=Til I can't take it anymore
TTITLE15=Resurrection shuffle
TTITLE16=Puppet man
TTITLE17=It's up to the woman
TTITLE18=Ebb tide (The sea)
TTITLE19=(I ain't no) One night only love maker
TTITLE20=You're my world (Il mio mondo)
EXTD=
EXTT0=
EXTT1=
EXTT2=
EXTT3=
EXTT4=
EXTT5=
EXTT6=
EXTT7=
EXTT8=
EXTT9=
EXTT10=
EXTT11=
EXTT12=
EXTT13=
EXTT14=
EXTT15=
EXTT16=
EXTT17=
EXTT18=
EXTT19=
EXTT20=
PLAYORDER=
